<?xml version="1.0" encoding="UTF-8"?>
<!-- Created with Inkscape (http://www.inkscape.org/) -->
<svg width="269mm" height="170mm" version="1.1" viewBox="0 0 269 170" xmlns="http://www.w3.org/2000/svg" xmlns:cc="http://creativecommons.org/ns#" xmlns:dc="http://purl.org/dc/elements/1.1/" xmlns:rdf="http://www.w3.org/1999/02/22-rdf-syntax-ns#">
<defs>
<clipPath id="clipPath1121-8">
<rect x="220.4" y="273.45" width="127" height="105.3" fill="none" stroke="#000"/>
</clipPath>
</defs>
<metadata>
<rdf:RDF>
<cc:Work rdf:about="">
<dc:format>image/svg+xml</dc:format>
<dc:type rdf:resource="http://purl.org/dc/dcmitype/StillImage"/>
<dc:title/>
</cc:Work>
</rdf:RDF>
</metadata>
<g transform="translate(0,-127)">
<ellipse cx="70.644" cy="212.2" rx="69.85" ry="84.005" fill="#4de9ab" stroke-width="1.5649"/>
<g transform="translate(-80.433 -104.78)" clip-path="url(#clipPath1121-8)" fill="none" stroke="#000">
<path d="m134.35 372.43c-2.2471-0.4414-3.8762-2.9736-3.6645-5.6959 0.12516-1.6097 0.51187-2.3725 2.3079-4.5522 0.88049-1.0686 1.5768-2.03 1.5474-2.1363-0.0417-0.15067-0.80864-0.21152-3.4783-0.27597-3.7891-0.0915-4.0187-0.14094-5.1107-1.1013-1.2543-1.1031-1.9784-3.2175-1.7206-5.0246 0.0735-0.51506 0.26001-1.2515 0.41455-1.6365 0.41459-1.0329 1.3885-2.1345 2.2597-2.5558l0.73224-0.35415 16.376-0.1474 9.8754-11.86c8.5424-10.259 10.057-12.169 9.8447-12.411-0.0169-0.0192-10.768-0.069-23.891-0.1105l-23.86-0.0755-0.6988-0.39339c-0.89144-0.50184-1.7453-1.5273-2.1631-2.5979-0.28294-0.72494-0.32756-1.0299-0.32756-2.2389s0.0446-1.514 0.32756-2.2389c0.41786-1.0706 1.2717-2.0961 2.1631-2.5979l0.6988-0.3934 4.7843-0.0812c2.6313-0.0447 4.798-0.0944 4.8149-0.1105 0.1681-0.16039-0.85265-1.454-6.6474-8.424-6.0374-7.2619-6.7135-8.1228-7.047-8.9737-0.20288-0.51763-0.40673-1.305-0.45299-1.7497-0.22825-2.194 0.84952-4.483 2.5567-5.4301 0.66497-0.36887 0.90887-0.42394 1.8688-0.42196 1.8376 4e-3 1.9094 0.0619 5.7729 4.6631 1.8257 2.1744 3.3975 3.9534 3.4929 3.9534 0.0954 0 1.4999-1.5876 3.1209-3.5279 3.5195-4.2126 3.7011-4.3542 5.5849-4.3542 1.0299 0 1.2473 0.0483 1.8695 0.41523 0.89704 0.52903 1.6992 1.4924 2.1397 2.5698 0.30553 0.74725 0.34574 1.0084 0.34574 2.2452 0 2.2624-0.1179 2.4805-3.6255 6.7074-1.6156 1.9469-2.9375 3.6347-2.9375 3.7507 0 0.31271 6.62 8.2501 7.0804 8.4895 0.33354 0.1734 4.6325 0.20491 27.724 0.20322 15.031-1e-3 27.454-0.042 27.605-0.0908 0.1518-0.0489 0.27601-0.19756 0.27601-0.33044 0-0.13287-1.6012-2.1638-3.5582-4.5132l-3.5582-4.2716-15.517-0.1474-0.6747-0.3868c-0.95554-0.5478-1.6086-1.2871-2.0885-2.3644-0.36472-0.81872-0.421-1.0932-0.46306-2.258-0.066-1.8278 0.22587-2.7575 1.2528-3.9908 1.2134-1.4573 1.5913-1.5788 5.1323-1.65 2.5893-0.0521 2.9135-0.0853 2.9135-0.29832 0-0.13186-1.1285-1.6009-2.5078-3.2645-3.0106-3.6312-3.1965-3.9873-3.1965-6.1218 0-1.2017 0.0382-1.4222 0.39867-2.3017 0.95315-2.3253 3.0125-3.4934 5.0521-2.8658 0.43199 0.13292 0.98317 0.38232 1.2248 0.55421 0.24167 0.1719 6.8019 7.9439 14.578 17.271l14.139 16.959 53.163 0.0373c46.38 0.0326 53.182 0.01 53.311-0.17684 0.17547-0.25393 0.13739-0.51051-0.75532-5.0899-0.71052-3.6447-0.73905-4.5291-0.18779-5.8203 0.37928-0.88837 1.1792-1.8381 1.9299-2.2915 0.73886-0.44618 2.1035-0.55819 2.9084-0.23872 0.3233 0.12834 5.0869 2.9935 10.586 6.3671 5.4988 3.3736 10.824 6.6364 11.833 7.2508 2.0637 1.2564 2.7273 1.8965 3.223 3.1088 0.29493 0.72127 0.33986 1.0065 0.33986 2.1571 0 1.1547-0.0445 1.4347-0.34424 2.1679-0.19193 0.4694-0.58826 1.0999-0.89576 1.425-0.38157 0.40338-4.1665 2.7999-12.282 7.7769-6.4519 3.9566-12.011 7.3165-12.353 7.4664-0.84103 0.36847-2.238 0.28044-3.0144-0.18995-0.75152-0.45535-1.551-1.405-1.9299-2.2926-0.55241-1.2939-0.52349-2.176 0.19339-5.8978 0.90453-4.6962 0.87611-4.512 0.74273-4.8114-0.11505-0.25818 8e-3 -0.26766-68.566-0.23039l-68.447 0.0372-10.299 12.367-0.0338 10.542-0.0338 10.542-0.39868 0.97243c-1.747 4.2611-6.7722 3.9563-8.2181-0.49852-0.17118-0.52738-0.21093-1.3934-0.24859-5.416-0.0257-2.7496-0.0945-4.8489-0.16147-4.9308-0.0745-0.091-3.653 4.0983-9.8976 11.587-6.3762 7.6467-9.9518 11.831-10.272 12.02-1.0348 0.61074-1.9765 0.80205-2.9789 0.60514z" fill="none" stroke="#000"/>
</g>
</g>
</svg>
