<?xml version="1.0" encoding="UTF-8"?>
<!-- Created with Inkscape (http://www.inkscape.org/) -->
<svg width="432mm" height="210mm" version="1.1" viewBox="0 0 432 210" xmlns="http://www.w3.org/2000/svg" xmlns:cc="http://creativecommons.org/ns#" xmlns:dc="http://purl.org/dc/elements/1.1/" xmlns:rdf="http://www.w3.org/1999/02/22-rdf-syntax-ns#">
<defs>
<clipPath id="clipPath105">
<rect x="17.992" y="107.56" width="193.67" height="139.17" stroke-width=".28475"/>
</clipPath>
</defs>
<metadata>
<rdf:RDF>
<cc:Work rdf:about="">
<dc:format>image/svg+xml</dc:format>
<dc:type rdf:resource="http://purl.org/dc/dcmitype/StillImage"/>
<dc:title/>
</cc:Work>
</rdf:RDF>
</metadata>
<g transform="translate(0,-87)">
<g clip-path="url(#clipPath105)">
<g transform="matrix(.85648 0 0 .71663 -262.01 182.63)">
<g transform="translate(-45.89,6.354)" stroke-width=".2247">//circle
//branch`
<path id="branch" d="m419.37 84.585c-2.6041-0.82874-4.9156-3.1255-6.0858-6.0472-0.76302-1.9049-0.81327-2.2277-0.81327-5.2255 0-4.4325 0.49007-5.605 4.4105-10.552 1.6307-2.0578 2.8831-3.8423 2.7832-3.9655-0.10005-0.12326-3.2099-0.29237-6.911-0.37592l-6.7292-0.15193-1.6321-0.98751c-1.9351-1.1709-3.4561-3.0794-4.3772-5.4923-0.57525-1.5069-0.65829-2.1076-0.65829-4.763 0-2.6553 0.0831-3.2561 0.65829-4.763 0.8797-2.3045 2.3489-4.1981 4.2281-5.4495l1.5469-1.0302 33.28-0.30386 19.919-24.46c10.955-13.453 19.919-24.562 19.919-24.689 0-0.12569-21.244-0.2286-47.208-0.2286-52.009 0-48.81 0.11624-51.324-1.8646-5.4292-4.2783-5.7734-13.835-0.67662-18.781 2.3547-2.2858 3.2239-2.4468 13.209-2.4468 4.7942 0 8.7943-0.09545 8.8893-0.21207 0.095-0.11664-5.8934-7.6713-13.307-16.789-15.627-19.216-14.866-18.019-14.866-23.413 0-2.9303 0.0596-3.3349 0.73-4.9613 0.43133-1.0463 1.3136-2.4343 2.1565-3.3926 3.0774-3.4988 7.4067-4.0714 11.087-1.4661 0.61577 0.43582 3.9636 4.2594 7.4396 8.4967 3.476 4.2374 6.4218 7.7044 6.5463 7.7044 0.12442 0 2.9592-3.3316 6.2993-7.4033 7.0441-8.5874 7.3201-8.805 11.181-8.8183 1.9734-0.0067 2.2816 0.07939 3.9909 1.1169 2.1996 1.335 3.4025 2.8557 4.4653 5.6444 0.67047 1.7595 0.76487 2.3307 0.75937 4.5953-0.0114 4.6951-0.19931 5.0534-7.1811 13.69-3.3157 4.1017-6.0287 7.5894-6.0287 7.7504 0 0.16106 3.1463 4.1545 6.9917 8.8747l6.9917 8.582h55.734c44.581 0 55.734-0.07641 55.734-0.38185 0-0.21002-3.1184-4.2096-6.9296-8.8878l-6.9296-8.5059-31.05-0.30386-1.6527-0.96156c-2.2107-1.2861-3.7334-3.0698-4.7187-5.5275-0.73657-1.8372-0.80414-2.2488-0.80414-4.8989 0-2.6063 0.0759-3.0891 0.76568-4.8683 0.97316-2.5102 2.5101-4.3975 4.5541-5.5926l1.6084-0.9403 5.6911-0.09518c3.1301-0.05239 5.7967-0.2232 5.9259-0.37965 0.14717-0.17822-1.7114-2.6962-4.976-6.7416-4.6637-5.7791-5.2665-6.6418-5.7404-8.2156-0.72502-2.4079-0.73108-6.2169-0.0136-8.5716 0.68437-2.2463 2.7823-5.0247 4.6362-6.1404 1.2644-0.76082 1.6649-0.84558 4.003-0.84732 4.5044-4e-3 1.4006-3.3472 34.027 36.66l28.707 35.2h107.06c63.251 0 107.11-0.11205 107.2-0.27373 0.16769-0.33316-0.51067-4.4494-1.8722-11.361-1.2516-6.3537-1.2464-8.1642 0.0327-11.111 1.4991-3.4539 4.031-5.5044 7.1024-5.7517 1.2326-0.09922 2.1498 0.0041 2.9692 0.33414 1.4915 0.60096 48.271 29.915 49.668 31.123 3.062 2.6505 4.2076 8.4696 2.5454 12.929-1.2892 3.4579-0.63458 2.9841-26.749 19.363-13.185 8.2696-24.542 15.289-25.238 15.598-3.7776 1.6774-8.6165-0.87771-10.478-5.5329-1.0996-2.7498-0.9853-5.3239 0.60254-13.565 0.70844-3.6766 1.3208-7.0951 1.3609-7.5964l0.0729-0.91157-275.89-0.15255-20.536 25.224-0.12372 21.953c-0.12286 21.8-0.12747 21.962-0.66662 23.396-0.75348 2.0034-2.7656 4.5135-4.4638 5.5685-1.3059 0.8113-1.6463 0.88632-4.0246 0.88723-2.2971 0-2.7606-0.09261-4.0023-0.80737-1.9652-1.1314-3.519-2.9989-4.4724-5.376l-0.80415-2.0049-0.0744-9.9588c-0.0554-7.4209-0.14912-9.9588-0.36758-9.9588-0.16123 0-9.0912 10.785-19.844 23.965-21.982 26.945-20.647 25.542-24.487 25.741-1.0958 0.05657-2.3394-0.0081-2.7636-0.14268z" fill="#833000" stroke-width=".2742"/>
</g>
</g>
</g>
</g>
</svg>
