<?xml version="1.0" encoding="UTF-8"?>
<!-- Created with Inkscape (http://www.inkscape.org/) -->
<svg width="450mm" height="223mm" version="1.1" viewBox="0 0 450 223" xmlns="http://www.w3.org/2000/svg" xmlns:cc="http://creativecommons.org/ns#" xmlns:dc="http://purl.org/dc/elements/1.1/" xmlns:rdf="http://www.w3.org/1999/02/22-rdf-syntax-ns#">
<metadata>
<rdf:RDF>
<cc:Work rdf:about="">
<dc:format>image/svg+xml</dc:format>
<dc:type rdf:resource="http://purl.org/dc/dcmitype/StillImage"/>
<dc:title/>
</cc:Work>
</rdf:RDF>
</metadata>
<g transform="translate(0,-74)">
<ellipse cx="122.24" cy="141.82" rx="70.216" ry="66.909" fill="#2bf0a7" stroke="#002100" stroke-linejoin="bevel" stroke-width="1.3255"/>
<g transform="translate(42.598 -193.41)" fill="none" stroke-width="0">
<path d="m71.307 374.12c-2.2867-0.35355-3.9445-2.3817-3.7291-4.5622 0.12737-1.2893 0.5209-1.9003 2.3486-3.6462 0.89603-0.85594 1.6047-1.6259 1.5747-1.7111-0.0424-0.12069-0.8229-0.16942-3.5396-0.22105-3.8559-0.0733-4.0896-0.11289-5.2008-0.88208-1.2764-0.88353-2.0132-2.5771-1.751-4.0246 0.0748-0.41255 0.26459-1.0024 0.42186-1.3108 0.4219-0.82735 1.413-1.7097 2.2995-2.0472l0.74515-0.28367 16.665-0.118 10.05-9.4993c8.6931-8.2171 10.235-9.7467 10.018-9.9409-0.0172-0.0154-10.958-0.0552-24.312-0.0885l-24.281-0.0605-0.71113-0.3151c-0.90716-0.40196-1.7761-1.2233-2.2013-2.0809-0.28793-0.58065-0.33334-0.82494-0.33334-1.7933 0-0.96835 0.0454-1.2126 0.33334-1.7933 0.42522-0.85753 1.2941-1.6789 2.2013-2.0809l0.71113-0.3151 4.8686-0.0651c2.6777-0.0358 4.8827-0.0756 4.8998-0.0885 0.17107-0.12847-0.86768-1.1646-6.7647-6.7474-6.1439-5.8166-6.8319-6.5062-7.1713-7.1877-0.20646-0.41461-0.41391-1.0452-0.46098-1.4014-0.23228-1.7574 0.8645-3.5908 2.6018-4.3493 0.6767-0.29545 0.92489-0.33956 1.9018-0.33797 1.87 3e-3 1.9431 0.0495 5.8747 3.735 1.8579 1.7416 3.4574 3.1665 3.5545 3.1665 0.0971 0 1.5263-1.2716 3.176-2.8258 3.5815-3.3742 3.7664-3.4876 5.6834-3.4876 1.048 0 1.2693 0.0387 1.9024 0.33258 0.91286 0.42375 1.7292 1.1954 2.1774 2.0583 0.31092 0.59853 0.35184 0.80766 0.35184 1.7984 0 1.8121-0.11997 1.9868-3.6895 5.3724-1.6441 1.5594-2.9893 2.9113-2.9893 3.0042 0 0.25047 6.7367 6.6081 7.2053 6.7999 0.33942 0.13889 4.7142 0.16413 28.213 0.16277 15.296-9.5e-4 27.938-0.0336 28.092-0.0728 0.15449-0.0391 0.28088-0.15824 0.28088-0.26467s-1.6294-1.7332-3.621-3.615l-3.621-3.4214-15.79-0.118-0.6866-0.30981c-0.97239-0.43877-1.6369-1.0309-2.1253-1.8938-0.37115-0.65577-0.42843-0.87562-0.47122-1.8086-0.0671-1.464 0.22985-2.2087 1.2748-3.1965 1.2348-1.1673 1.6194-1.2646 5.2228-1.3216 2.635-0.0417 2.9649-0.0683 2.9649-0.23894 0-0.10562-1.1484-1.2823-2.552-2.6148-3.0637-2.9085-3.2529-3.1937-3.2529-4.9034 0-0.96255 0.0389-1.1392 0.40571-1.8436 0.96995-1.8625 3.0656-2.7981 5.1412-2.2955 0.43961 0.10646 1.0005 0.30622 1.2464 0.4439 0.24593 0.13769 6.9218 6.3628 14.835 13.834l14.388 13.583 54.1 0.0299c47.198 0.0261 54.119 8e-3 54.251-0.14165 0.17856-0.20339 0.13982-0.4089-0.76864-4.0769-0.72304-2.9193-0.75208-3.6277-0.1911-4.6619 0.38597-0.71157 1.2-1.4723 1.9639-1.8354 0.75189-0.35738 2.1406-0.4471 2.9596-0.19121 0.329 0.1028 5.1766 2.3977 10.772 5.0999 5.5958 2.7021 11.014 5.3156 12.041 5.8077 2.1001 1.0064 2.7754 1.519 3.2798 2.49 0.30013 0.57772 0.34586 0.80615 0.34586 1.7278 0 0.92489-0.0452 1.1492-0.35032 1.7364-0.1953 0.37598-0.59863 0.88098-0.91155 1.1414-0.38829 0.3231-4.2399 2.2426-12.499 6.2291-6.5657 3.1691-12.223 5.8603-12.571 5.9804-0.85587 0.29514-2.2775 0.22463-3.0675-0.15214-0.76477-0.36472-1.5783-1.1254-1.9639-1.8363-0.56215-1.0364-0.53272-1.7429 0.1968-4.724 0.92048-3.7615 0.89156-3.614 0.75582-3.8538-0.11707-0.2068-2.5772-0.2133-69.775-0.18454l-69.654 0.0298-10.481 9.9056-0.0688 16.887-0.40571 0.7789c-1.7778 3.413-6.8916 3.1689-8.363-0.3993-0.1742-0.42242-0.21465-1.1161-0.25297-4.3381-0.0262-2.2024-0.0961-3.8838-0.16432-3.9494-0.0758-0.0729-3.7174 3.2827-10.072 9.2811-6.4886 6.1248-10.127 9.4761-10.453 9.6273-1.053 0.48918-2.0114 0.64242-3.0314 0.4847z" fill="none" stroke-width="0"/>
</g>
</g>
</svg>
