<?xml version="1.0" encoding="UTF-8"?>
<!-- Created with Inkscape (http://www.inkscape.org/) -->
<svg width="432mm" height="210mm" version="1.1" viewBox="0 0 432 210" xmlns="http://www.w3.org/2000/svg" xmlns:cc="http://creativecommons.org/ns#" xmlns:dc="http://purl.org/dc/elements/1.1/" xmlns:rdf="http://www.w3.org/1999/02/22-rdf-syntax-ns#">
<defs>
<clipPath id="clipPath105">
<rect x="17.992" y="107.56" width="193.67" height="139.17" stroke-width=".28475"/>
</clipPath>
<clipPath id="clipPath218">
<rect x="590.23" y="-110.37" width="252.5" height="194.19" stroke-width=".60215"/>
</clipPath>
</defs>
<metadata>
<rdf:RDF>
<cc:Work rdf:about="">
<dc:format>image/svg+xml</dc:format>
<dc:type rdf:resource="http://purl.org/dc/dcmitype/StillImage"/>
<dc:title/>
</cc:Work>
</rdf:RDF>
</metadata>
<g transform="translate(0,-87)">
<g transform="matrix(.98805 0 0 1.0792 -45.564 7.3442)">
<ellipse cx="122.24" cy="141.82" rx="70.216" ry="66.909" fill="#2bf0a7" stroke="#002100" stroke-linejoin="bevel" stroke-width="1.3255"/>
<g transform="translate(42.598,-193.41)" fill="none" stroke-width="0">
<path d="m71.307 374.12c-2.2867-0.35355-3.9445-2.3817-3.7291-4.5622 0.12737-1.2893 0.5209-1.9003 2.3486-3.6462 0.89603-0.85594 1.6047-1.6259 1.5747-1.7111-0.0424-0.12069-0.8229-0.16942-3.5396-0.22105-3.8559-0.0733-4.0896-0.11289-5.2008-0.88208-1.2764-0.88353-2.0132-2.5771-1.751-4.0246 0.0748-0.41255 0.26459-1.0024 0.42186-1.3108 0.4219-0.82735 1.413-1.7097 2.2995-2.0472l0.74515-0.28367 16.665-0.118 10.05-9.4993c8.6931-8.2171 10.235-9.7467 10.018-9.9409-0.0172-0.0154-10.958-0.0552-24.312-0.0885l-24.281-0.0605-0.71113-0.3151c-0.90716-0.40196-1.7761-1.2233-2.2013-2.0809-0.28793-0.58065-0.33334-0.82494-0.33334-1.7933 0-0.96835 0.0454-1.2126 0.33334-1.7933 0.42522-0.85753 1.2941-1.6789 2.2013-2.0809l0.71113-0.3151 4.8686-0.0651c2.6777-0.0358 4.8827-0.0756 4.8998-0.0885 0.17107-0.12847-0.86768-1.1646-6.7647-6.7474-6.1439-5.8166-6.8319-6.5062-7.1713-7.1877-0.20646-0.41461-0.41391-1.0452-0.46098-1.4014-0.23228-1.7574 0.8645-3.5908 2.6018-4.3493 0.6767-0.29545 0.92489-0.33956 1.9018-0.33797 1.87 3e-3 1.9431 0.0495 5.8747 3.735 1.8579 1.7416 3.4574 3.1665 3.5545 3.1665s1.5263-1.2716 3.176-2.8258c3.5815-3.3742 3.7664-3.4876 5.6834-3.4876 1.048 0 1.2693 0.0387 1.9024 0.33258 0.91286 0.42375 1.7292 1.1954 2.1774 2.0583 0.31092 0.59853 0.35184 0.80766 0.35184 1.7984 0 1.8121-0.11997 1.9868-3.6895 5.3724-1.6441 1.5594-2.9893 2.9113-2.9893 3.0042 0 0.25047 6.7367 6.6081 7.2053 6.7999 0.33942 0.13889 4.7142 0.16413 28.213 0.16277 15.296-9.5e-4 27.938-0.0336 28.092-0.0728 0.15449-0.0391 0.28088-0.15824 0.28088-0.26467s-1.6294-1.7332-3.621-3.615l-3.621-3.4214-15.79-0.118-0.6866-0.30981c-0.97239-0.43877-1.6369-1.0309-2.1253-1.8938-0.37115-0.65577-0.42843-0.87562-0.47122-1.8086-0.0671-1.464 0.22985-2.2087 1.2748-3.1965 1.2348-1.1673 1.6194-1.2646 5.2228-1.3216 2.635-0.0417 2.9649-0.0683 2.9649-0.23894 0-0.10562-1.1484-1.2823-2.552-2.6148-3.0637-2.9085-3.2529-3.1937-3.2529-4.9034 0-0.96255 0.0389-1.1392 0.40571-1.8436 0.96995-1.8625 3.0656-2.7981 5.1412-2.2955 0.43961 0.10646 1.0005 0.30622 1.2464 0.4439 0.24593 0.13769 6.9218 6.3628 14.835 13.834l14.388 13.583 54.1 0.0299c47.198 0.0261 54.119 8e-3 54.251-0.14165 0.17856-0.20339 0.13982-0.4089-0.76864-4.0769-0.72304-2.9193-0.75208-3.6277-0.1911-4.6619 0.38597-0.71157 1.2-1.4723 1.9639-1.8354 0.75189-0.35738 2.1406-0.4471 2.9596-0.19121 0.329 0.1028 5.1766 2.3977 10.772 5.0999 5.5958 2.7021 11.014 5.3156 12.041 5.8077 2.1001 1.0064 2.7754 1.519 3.2798 2.49 0.30013 0.57772 0.34586 0.80615 0.34586 1.7278 0 0.92489-0.0452 1.1492-0.35032 1.7364-0.1953 0.37598-0.59863 0.88098-0.91155 1.1414-0.38829 0.3231-4.2399 2.2426-12.499 6.2291-6.5657 3.1691-12.223 5.8603-12.571 5.9804-0.85587 0.29514-2.2775 0.22463-3.0675-0.15214-0.76477-0.36472-1.5783-1.1254-1.9639-1.8363-0.56215-1.0364-0.53272-1.7429 0.1968-4.724 0.92048-3.7615 0.89156-3.614 0.75582-3.8538-0.11707-0.2068-2.5772-0.2133-69.775-0.18454l-69.654 0.0298-10.481 9.9056-0.0688 16.887-0.40571 0.7789c-1.7778 3.413-6.8916 3.1689-8.363-0.3993-0.1742-0.42242-0.21465-1.1161-0.25297-4.3381-0.0262-2.2024-0.0961-3.8838-0.16432-3.9494-0.0758-0.0729-3.7174 3.2827-10.072 9.2811-6.4886 6.1248-10.127 9.4761-10.453 9.6273-1.053 0.48918-2.0114 0.64242-3.0314 0.4847z" fill="none" stroke-width="0"/>
</g>
</g>

<g transform="matrix(.60522 0 0 .60301 128.06 54.649)">
<g transform="matrix(.85648 0 0 .71663 -262.01 182.63)">
<g transform="translate(-45.89,6.354)" stroke-width=".2247">//circle
//branch`
<path transform="translate(-210.87 .020615)" d="m419.37 84.585c-2.6041-0.82874-4.9156-3.1255-6.0858-6.0472-0.76302-1.9049-0.81327-2.2277-0.81327-5.2255 0-4.4325 0.49007-5.605 4.4105-10.552 1.6307-2.0578 2.8831-3.8423 2.7832-3.9655-0.10005-0.12326-3.2099-0.29237-6.911-0.37592l-6.7292-0.15193-1.6321-0.98751c-1.9351-1.1709-3.4561-3.0794-4.3772-5.4923-0.57525-1.5069-0.65829-2.1076-0.65829-4.763 0-2.6553 0.0831-3.2561 0.65829-4.763 0.8797-2.3045 2.3489-4.1981 4.2281-5.4495l1.5469-1.0302 33.28-0.30386 19.919-24.46c10.955-13.453 19.919-24.562 19.919-24.689 0-0.12569-21.244-0.2286-47.208-0.2286-52.009 0-48.81 0.11624-51.324-1.8646-5.4292-4.2783-5.7734-13.835-0.67662-18.781 2.3547-2.2858 3.2239-2.4468 13.209-2.4468 4.7942 0 8.7943-0.09545 8.8893-0.21207 0.095-0.11664-5.8934-7.6713-13.307-16.789-15.627-19.216-14.866-18.019-14.866-23.413 0-2.9303 0.0596-3.3349 0.73-4.9613 0.43133-1.0463 1.3136-2.4343 2.1565-3.3926 3.0774-3.4988 7.4067-4.0714 11.087-1.4661 0.61577 0.43582 3.9636 4.2594 7.4396 8.4967 3.476 4.2374 6.4218 7.7044 6.5463 7.7044 0.12442 0 2.9592-3.3316 6.2993-7.4033 7.0441-8.5874 7.3201-8.805 11.181-8.8183 1.9734-0.0067 2.2816 0.07939 3.9909 1.1169 2.1996 1.335 3.4025 2.8557 4.4653 5.6444 0.67047 1.7595 0.76487 2.3307 0.75937 4.5953-0.0114 4.6951-0.19931 5.0534-7.1811 13.69-3.3157 4.1017-6.0287 7.5894-6.0287 7.7504 0 0.16106 3.1463 4.1545 6.9917 8.8747l6.9917 8.582h55.734c44.581 0 55.734-0.07641 55.734-0.38185 0-0.21002-3.1184-4.2096-6.9296-8.8878l-6.9296-8.5059-31.05-0.30386-1.6527-0.96156c-2.2107-1.2861-3.7334-3.0698-4.7187-5.5275-0.73657-1.8372-0.80414-2.2488-0.80414-4.8989 0-2.6063 0.0759-3.0891 0.76568-4.8683 0.97316-2.5102 2.5101-4.3975 4.5541-5.5926l1.6084-0.9403 5.6911-0.09518c3.1301-0.05239 5.7967-0.2232 5.9259-0.37965 0.14717-0.17822-1.7114-2.6962-4.976-6.7416-4.6637-5.7791-5.2665-6.6418-5.7404-8.2156-0.72502-2.4079-0.73108-6.2169-0.0136-8.5716 0.68437-2.2463 2.7823-5.0247 4.6362-6.1404 1.2644-0.76082 1.6649-0.84558 4.003-0.84732 4.5044-4e-3 1.4006-3.3472 34.027 36.66l28.707 35.2h107.06c63.251 0 107.11-0.11205 107.2-0.27373 0.16769-0.33316-0.51067-4.4494-1.8722-11.361-1.2516-6.3537-1.2464-8.1642 0.0327-11.111 1.4991-3.4539 4.031-5.5044 7.1024-5.7517 1.2326-0.09922 2.1498 0.0041 2.9692 0.33414 1.4915 0.60096 48.271 29.915 49.668 31.123 3.062 2.6505 4.2076 8.4696 2.5454 12.929-1.2892 3.4579-0.63458 2.9841-26.749 19.363-13.185 8.2696-24.542 15.289-25.238 15.598-3.7776 1.6774-8.6165-0.87771-10.478-5.5329-1.0996-2.7498-0.9853-5.3239 0.60254-13.565 0.70844-3.6766 1.3208-7.0951 1.3609-7.5964l0.0729-0.91157-275.89-0.15255-20.536 25.224-0.12372 21.953c-0.12286 21.8-0.12747 21.962-0.66662 23.396-0.75348 2.0034-2.7656 4.5135-4.4638 5.5685-1.3059 0.8113-1.6463 0.88632-4.0246 0.88723-2.2971 0-2.7606-0.09261-4.0023-0.80737-1.9652-1.1314-3.519-2.9989-4.4724-5.376l-0.80415-2.0049-0.0744-9.9588c-0.0554-7.4209-0.14912-9.9588-0.36758-9.9588-0.16123 0-9.0912 10.785-19.844 23.965-21.982 26.945-20.647 25.542-24.487 25.741-1.0958 0.05657-2.3394-0.0081-2.7636-0.14268z" clip-path="url(#clipPath218)" fill="#833000" stroke-width=".2742"/>
</g>
</g>
</g>
</g>
</svg>
