<?xml version="1.0" encoding="UTF-8"?>
<!-- Created with Inkscape (http://www.inkscape.org/) -->
<svg width="210mm" height="297mm" version="1.1" viewBox="0 0 210 297" xmlns="http://www.w3.org/2000/svg" xmlns:cc="http://creativecommons.org/ns#" xmlns:dc="http://purl.org/dc/elements/1.1/" xmlns:rdf="http://www.w3.org/1999/02/22-rdf-syntax-ns#" xmlns:xlink="http://www.w3.org/1999/xlink">
<metadata>
<rdf:RDF>
<cc:Work rdf:about="">
<dc:format>image/svg+xml</dc:format>
<dc:type rdf:resource="http://purl.org/dc/dcmitype/StillImage"/>
<dc:title/>
</cc:Work>
</rdf:RDF>
</metadata>

//circle
<g stroke-width=".084667">
<path d="m18.085 242.32c-1.1581-0.12282-2.5282-0.57794-3.3566-1.115-0.75779-0.49131-1.4349-1.28-1.8679-2.1757-0.61932-1.281-0.63015-1.418-0.59713-7.5495 0.03206-5.9542 0.0068-5.6884 0.67074-7.0507 0.59414-1.219 1.8015-2.2821 3.2616-2.8717 2.7049-1.0924 6.0819-0.76281 8.1366 0.79405 1.5125 1.1461 2.3849 3.1276 2.3876 5.4233 0.0013 1.1128-0.1118 1.3972-0.70183 1.7649-1.1181 0.69676-3.6774 0.39593-4.2215-0.49619-0.10195-0.16717-0.15503-0.41841-0.15524-0.73475-8.89e-4 -1.3455-0.3845-2.6154-0.9065-3.0007-0.35284-0.26048-0.8526-0.40064-1.4221-0.39884-0.83172 3e-3 -1.4154 0.36581-1.7459 1.0863-0.14537 0.31689-0.15548 0.67931-0.15722 5.6361-2e-3 5.8391-0.0028 5.8302 0.51889 6.461 0.48342 0.58457 1.1925 0.77057 2.0828 0.54638 0.51947-0.13081 1.0422-0.65238 1.2736-1.2708 0.19282-0.51535 0.35619-1.5352 0.35619-2.2234 0-0.32666 0.04807-0.50923 0.17734-0.67357 0.40796-0.51864 1.4405-0.78083 2.7836-0.70683 0.94027 0.0518 1.4604 0.24981 1.8641 0.70958 0.2453 0.27938 0.255 0.32101 0.255 1.0954 0 3.199-2.0029 5.7159-5.1718 6.4989-1.0538 0.26039-2.4358 0.36083-3.4642 0.25176zm28.66-0.0206c-0.81951-0.19928-1.5403-0.72384-1.8586-1.3526-0.18906-0.37344-0.19835-0.48457-0.23785-2.844-0.04799-2.8663-0.11454-3.2318-0.69374-3.8101-0.44353-0.44286-0.83038-0.55222-2.1631-0.61149l-1.0793-0.048-0.04566 3.3778c-0.02511 1.8578-0.08383 3.5244-0.13048 3.7036-0.15095 0.57982-0.52814 1.0847-0.98651 1.3205-0.36714 0.18889-0.52266 0.2157-1.2269 0.2115-1.0877-7e-3 -1.5996-0.27127-1.9799-1.0242-0.29417-0.58243-0.31462-1.2878-0.28929-9.9776 0.02771-9.5061-4e-3 -8.9924 0.59352-9.6036 0.56252-0.57536 0.41605-0.5564 4.2982-0.5564 3.0774 0 3.5857 0.0185 4.0939 0.14898 3.1887 0.81868 4.9692 2.9581 4.9642 5.9646-0.0028 1.6832-0.71981 3.2626-1.8884 4.16-0.47385 0.36387-1.0574 0.69356-1.5096 0.8528l-0.28378 0.0999 0.508 0.269c0.72436 0.38357 1.6461 1.3248 1.9674 2.009 0.37288 0.79397 0.44558 1.2692 0.44558 2.9126 0 1.4264 0.0055 1.4726 0.2103 1.7527 0.50726 0.69391 0.55106 0.7927 0.55138 1.2436 5.93e-4 0.81584-0.53669 1.5028-1.3685 1.7498-0.45195 0.13421-1.4401 0.16114-1.8908 0.0515zm-3.2115-12.206c0.78217-0.24159 1.4516-0.89386 1.6848-1.6417 0.35155-1.1274 0.13961-2.3144-0.53692-3.0071-0.61662-0.6314-1.0758-0.76189-2.6808-0.76189h-1.3092v5.588h1.1341c0.91184 0 1.2466-0.0347 1.7081-0.17728zm17.463 12.085c-0.89124-0.24811-1.2927-0.82888-1.4313-2.0709-0.05325-0.47698-0.07585-3.873-0.0602-9.047l0.02505-8.2833 0.19412-0.48026c0.23152-0.57278 0.70918-1.0378 1.2024-1.1706 0.23888-0.0643 1.6392-0.0848 4.471-0.0653 4.6647 0.0321 4.6419 0.0291 5.3098 0.69696 0.7427 0.74271 0.7427 2.1424 0 2.885-0.62233 0.62233-0.81594 0.65712-3.8748 0.69635l-2.6882 0.0345v4.0256l1.7568 0.0472c1.9656 0.0528 2.4504 0.14912 2.9477 0.5857 0.39455 0.34641 0.53625 0.63818 0.59764 1.2305 0.10064 0.97103-0.26179 1.6702-1.0598 2.0444-0.46106 0.21619-0.52895 0.22338-2.3586 0.24958l-1.8838 0.027v4.2822l2.5612 0.0462c2.2755 0.0411 2.6229 0.0658 3.1143 0.22145 0.57954 0.18361 0.99387 0.50757 1.2521 0.97898 0.10238 0.18694 0.14096 0.45968 0.13844 0.97882-0.0041 0.84043-0.11291 1.103-0.64651 1.5597-0.67132 0.57462-0.74678 0.58352-5.1918 0.61194-3.0743 0.0197-4.0694 0-4.3755-0.0848zm20.074 0.041c-0.53496-0.11397-0.8972-0.40482-1.153-0.92577l-0.23691-0.48244 0.03386-6.2653 0.93607-3.0903c0.51483-1.6997 1.2828-4.2714 1.7066-5.715 0.42381-1.4436 0.86067-2.8166 0.9708-3.0512 0.29389-0.62593 0.73823-1.0982 1.2867-1.3675l0.48465-0.23799h3.6407l0.53302 0.28902c0.52505 0.28469 0.8877 0.65155 1.1371 1.1503 0.20461 0.40915 0.56169 1.5653 2.1357 6.9151l1.4865 5.0524 0.09287 2.3982c0.13734 3.5464 0.0052 4.4689-0.71928 5.0215-0.35756 0.27272-1.1279 0.42606-1.75 0.34834-0.82429-0.10299-1.3871-0.56189-1.6073-1.3107-0.04955-0.16846-0.11275-1.0969-0.14044-2.0631l-0.05033-1.7568h-5.9746l-0.02699 1.8865c-0.02619 1.831-0.03335 1.8988-0.24329 2.3064-0.3115 0.60474-0.7791 0.87414-1.6044 0.92435-0.34906 0.0212-0.77118 0.01-0.93805-0.026zm8.1975-9.261c-0.05515-0.14483-2.1791-7.8386-2.1791-7.8936 0-0.0242-0.0762-0.0439-0.16933-0.0439-0.09313 0-0.16933 0.023-0.16933 0.0511s-0.42222 1.5807-0.93826 3.4502c-0.51604 1.8695-1.0089 3.6562-1.0953 3.9706l-0.15702 0.5715h2.3743c1.8645 0 2.3657-0.0227 2.334-0.10583zm18.813 9.2245c-0.94674-0.26901-1.3197-0.86076-1.4371-2.2801-0.0434-0.52483-0.0796-4.0118-0.0803-7.7487l-1e-3 -6.7945-1.2488-8.5e-4c-2.1346-1e-3 -2.9446-0.24866-3.4459-1.0532-0.22407-0.35963-0.24956-0.47194-0.24781-1.0917 3e-3 -1.0608 0.36038-1.602 1.3077-1.9803 0.34572-0.13806 0.81738-0.14982 6.0073-0.14982h5.6321l0.57314 0.28216c0.78019 0.38408 1.0184 0.74197 1.0615 1.5948 0.0439 0.87017-0.0265 1.1381-0.41527 1.5798-0.56161 0.63801-0.98323 0.7529-2.9352 0.79984l-1.6277 0.0391-0.0233 7.6735c-0.023 7.5724-0.0256 7.6785-0.1997 8.0545-0.18789 0.40586-0.67509 0.88905-1.034 1.0255-0.36777 0.13982-1.4662 0.16886-1.8851 0.0498zm18.724 0.0236c-0.48424-0.10215-0.96833-0.42652-1.2305-0.82447-0.47632-0.72309-0.47011-0.59528-0.47011-9.6861 0-5.8545 0.0285-8.4945 0.095-8.8087 0.16889-0.79796 0.50841-1.2837 1.1327-1.6206 0.2884-0.15562 0.47693-0.18275 1.27-0.18275 0.79308 0 0.98161 0.0271 1.27 0.18275 0.45267 0.24426 0.75468 0.57584 0.9903 1.0872l0.19504 0.42334v17.78l-0.2012 0.44511c-0.21853 0.4835-0.63758 0.90417-1.0883 1.0925-0.36252 0.15147-1.4744 0.21473-1.963 0.11167zm18.619-0.0222c-0.69198-0.19708-1.5455-0.91306-1.8251-1.531-0.066-0.14591-1.1138-4.0753-2.3283-8.732-2.0142-7.7227-2.2056-8.5164-2.1786-9.0333 0.0393-0.74986 0.3363-1.1819 1.0801-1.5712 0.44625-0.23357 0.61464-0.27517 1.1137-0.27517 0.70209 0 1.0994 0.14828 1.5424 0.57563 0.64398 0.62128 0.77973 1.0592 1.8295 5.9014 0.28268 1.3039 0.75467 3.5518 1.0489 4.9953 0.5334 2.6171 0.53557 2.6247 0.75842 2.6512 0.17521 0.0208 0.23317-0.0158 0.26824-0.16934 0.10612-0.46457 0.46188-2.1154 1.4928-6.9268 0.60362-2.8173 1.1599-5.2871 1.2362-5.4885 0.18126-0.47847 0.82228-1.1852 1.2521-1.3805 0.42478-0.19296 1.231-0.20527 1.7548-0.0268 0.79633 0.27133 1.422 1.065 1.422 1.8039 0 0.43761-0.23631 1.384-2.3708 9.4945-0.92527 3.5158-1.7667 6.7352-1.8698 7.1543-0.23385 0.95049-0.41369 1.3144-0.88022 1.7809-0.61194 0.61194-1.1169 0.81587-2.114 0.85375-0.53462 0.0203-0.99273-8e-3 -1.2323-0.0763zm18.432 0.0306c-0.80656-0.1657-1.3683-0.88535-1.5022-1.9245-0.10415-0.80815-0.0984-16.602 6e-3 -17.326 0.0457-0.31638 0.15704-0.72004 0.24733-0.89702 0.21978-0.43081 0.68778-0.82827 1.1087-0.94162 0.23399-0.063 1.6637-0.0838 4.4673-0.0651 3.6828 0.0246 4.1632 0.0434 4.4983 0.17543 0.94299 0.37166 1.3105 0.92269 1.3105 1.9649 0 1.0397-0.25574 1.4471-1.18 1.8799l-0.5057 0.23678-5.3763 0.0566v4.0256l1.7568 0.0472c2.0961 0.0563 2.4785 0.14367 3.0265 0.69171 0.29369 0.29369 0.38472 0.46 0.46593 0.85116 0.18577 0.89486-0.0783 1.7306-0.67073 2.1227-0.59963 0.39682-0.99171 0.45995-2.8563 0.45995h-1.7222v4.2946l2.5188 0.042c2.8664 0.0478 3.3133 0.12028 3.9148 0.63513 0.43887 0.37565 0.5832 0.66008 0.6476 1.2762 0.0785 0.75127-0.12651 1.3573-0.60032 1.7743-0.72205 0.63557-0.76636 0.64118-5.2532 0.66527-2.1886 0.0117-4.1245-8e-3 -4.3018-0.0449zm-117.19-30.939c-0.85187-0.2217-1.5065-0.6844-1.8372-1.2985-0.21909-0.40682-0.22009-0.41779-0.26122-2.8637-0.04808-2.8592-0.11275-3.2166-0.69055-3.8167-0.47452-0.49285-0.9707-0.62827-2.3021-0.62827h-1.0387l-0.02546 3.5348c-0.02431 3.3746-0.03346 3.5521-0.20184 3.9158-0.20979 0.45319-0.6631 0.87391-1.0952 1.0165-0.19361 0.0639-0.62689 0.0905-1.1391 0.0699-0.72509-0.0291-0.86907-0.0613-1.1718-0.26159-0.43277-0.2864-0.73813-0.80519-0.85595-1.4542-0.12582-0.69307-0.12648-16.976-7.62e-4 -17.699 0.17765-1.0201 0.71321-1.5861 1.6452-1.7386 0.6741-0.11028 5.0458-0.10748 6.1315 4e-3 2.0191 0.2072 3.853 1.0815 4.8414 2.3082 0.40969 0.50842 0.9357 1.5862 1.1032 2.2604 0.18014 0.72502 0.15436 2.555-0.04413 3.1327-0.5648 1.6437-1.6711 2.8693-3.0316 3.3585-0.22372 0.0804-0.40663 0.16731-0.40646 0.19304 1.7e-4 0.0257 0.25646 0.17924 0.56952 0.34113 1.0684 0.55251 1.9001 1.623 2.1785 2.8039 0.0882 0.37419 0.12825 1.0027 0.12912 2.0264l0.0013 1.4839 0.33945 0.45176c0.39855 0.53043 0.45729 0.71871 0.4024 1.2899-0.09077 0.94468-0.90545 1.5695-2.1389 1.6405-0.41145 0.0237-0.84351-4e-3 -1.1007-0.0712zm-3.053-12.25c1.0693-0.40802 1.6653-1.3589 1.6684-2.6618 3e-3 -1.2516-0.52729-2.1226-1.5322-2.5167-0.39496-0.15488-0.68915-0.18996-1.8457-0.2201l-1.3758-0.0358v2.7886c0 1.5337 0.02857 2.8183 0.0635 2.8546 0.03493 0.0363 0.61595 0.0474 1.2912 0.0246 1.0033-0.0339 1.3196-0.0765 1.7307-0.23336zm26.47 12.228c-0.79517-0.21379-1.3816-0.64578-1.7713-1.3048l-0.22528-0.381-0.04891-2.5823c-0.04048-2.1373-0.0736-2.647-0.19216-2.9575-0.21014-0.55036-0.50688-0.89455-0.96313-1.1171-0.35248-0.17196-0.55955-0.20149-1.611-0.22975l-1.2065-0.0324v3.1563c0 1.936-0.03641 3.3654-0.09417 3.6971-0.11675 0.67043-0.49295 1.2554-0.96416 1.4992-0.40694 0.21055-1.6664 0.29049-2.1752 0.13805-0.43768-0.13113-0.90507-0.55735-1.1198-1.0212-0.17472-0.37742-0.1766-0.46499-0.19943-9.3063-0.02567-9.9378-0.04814-9.5148 0.53982-10.166 0.55851-0.61821 0.67993-0.63649 4.2246-0.63612 2.6942 0 3.239 0.0219 3.8926 0.15447 3.0325 0.61516 4.9063 2.5101 5.2144 5.2734 0.27414 2.4585-0.873 4.6239-2.9425 5.5543-0.34025 0.15299-0.6186 0.2972-0.61854 0.32048 5.9e-5 0.0233 0.21774 0.15606 0.48374 0.29506 0.66176 0.3458 1.4669 1.1204 1.7807 1.7131 0.47106 0.88979 0.54418 1.2724 0.5919 3.0969l0.04384 1.6761 0.31962 0.38679c0.35837 0.43368 0.46633 0.88358 0.34052 1.4191-0.26749 1.1386-1.7847 1.761-3.2997 1.3537zm-3.6042-12.065c1.0199-0.18854 1.6667-0.66192 2.062-1.5093 0.19119-0.40978 0.22084-0.58615 0.22181-1.3196 9.4e-4 -0.70646-0.03118-0.91678-0.19392-1.27-0.5098-1.1065-1.3725-1.4817-3.4075-1.4817h-1.0965v5.6727h0.95812c0.52696 0 1.1821-0.0414 1.4559-0.092zm21.483 12.115c-1.5665-0.22193-3.0341-0.88909-3.9158-1.78-0.92872-0.93844-1.4309-1.9977-1.6038-3.383-0.11824-0.94722-0.11956-10.224-0.0016-11.164 0.26212-2.0905 1.5821-3.7688 3.5454-4.508 1.2456-0.46896 1.6456-0.53074 3.4363-0.53074 1.8653 0 2.3414 0.0817 3.6023 0.61828 1.2678 0.53948 2.1323 1.3382 2.7081 2.5017 0.65207 1.3179 0.63234 1.0854 0.63234 7.4507 0 5.1959-0.013 5.7281-0.15464 6.332-0.3913 1.6683-1.4446 3.0062-2.9357 3.7288-1.1279 0.54657-1.962 0.73032-3.5137 0.77403-0.6985 0.0197-1.5081 2e-3 -1.7992-0.0392zm2.3132-3.8862c0.43673-0.19836 0.83336-0.67666 0.98036-1.1822 0.16696-0.57422 0.16696-10.457 0-11.031-0.24573-0.84513-0.92162-1.3388-1.833-1.3388-0.92164 0-1.602 0.4996-1.859 1.3651-0.19695 0.6632-0.19516 10.321 2e-3 10.985 0.15676 0.52786 0.69401 1.1568 1.0851 1.2702 0.46114 0.13373 1.2529 0.10037 1.6246-0.0685zm52.445 3.8889c-0.89613-0.11583-1.6014-0.32824-2.4553-0.73954-1.5101-0.72731-2.6706-2.192-3.0057-3.7935-0.10166-0.48585-0.12401-1.5998-0.12401-6.1807 0-6.284-1e-3 -6.2656 0.60165-7.493 1.0116-2.0587 3.3094-3.2173 6.3804-3.2173 1.1674 0 2.0418 0.12805 2.9591 0.43329 1.1152 0.3711 1.7084 0.71593 2.3818 1.3845 0.65829 0.65352 1.0984 1.3718 1.4022 2.2886 0.19612 0.59178 0.19645 0.60099 0.22448 6.1383 0.0305 6.0272 7e-3 6.4489-0.4119 7.5353-0.67384 1.7457-2.0744 2.9137-4.1249 3.4397-0.91537 0.23482-2.8095 0.33592-3.8278 0.2043zm2.2252-3.8427c0.14985-0.0627 0.41318-0.27001 0.58518-0.46062 0.57714-0.63961 0.57627-0.63009 0.57627-6.2833 0-5.6532 8.5e-4 -5.6437-0.57627-6.2833-0.39756-0.44057-0.72399-0.57514-1.3895-0.57281-0.90615 3e-3 -1.5979 0.47948-1.8322 1.2616-0.13605 0.45411-0.13605 10.735 0 11.189 0.13255 0.44238 0.54235 0.91542 0.95571 1.1032 0.4133 0.18772 1.2856 0.21169 1.6809 0.0462zm21.058 3.8427c-0.89614-0.11583-1.6014-0.32824-2.4553-0.73954-1.5509-0.74695-2.69-2.2145-3.0077-3.8748-0.10235-0.53497-0.12473-1.6525-0.12352-6.1703 2e-3 -6.2007 2e-3 -6.1994 0.59962-7.4127 1.0258-2.081 3.3121-3.2267 6.4391-3.2267 3.0371 0 5.3466 1.1764 6.3165 3.2173 0.58872 1.2388 0.571 1.0037 0.571 7.5777v5.9267l-0.23067 0.67734c-0.6808 1.9991-2.0929 3.2593-4.2812 3.8207-0.91537 0.23482-2.8095 0.33592-3.8278 0.2043zm2.4692-3.975c0.16377-0.11222 0.38285-0.32822 0.48685-0.48001 0.42344-0.61796 0.43064-0.72045 0.43064-6.1297 0-5.6554 9.3e-4 -5.6456-0.57628-6.2852-0.39429-0.43695-0.72287-0.57467-1.3711-0.57467-0.87683 0-1.3951 0.31414-1.746 1.0583l-0.19964 0.42333v10.753l0.19964 0.42334c0.37576 0.79682 0.86242 1.0719 1.8369 1.0382 0.51548-0.0178 0.6996-0.0622 0.93897-0.2262zm-155.42 3.7279c-0.18819-0.0855-0.44209-0.27418-0.56422-0.41932-0.43394-0.51571-0.44948-0.65915-0.43293-3.9935l0.01534-3.0903 0.47617-1.6087c0.2619-0.88476 0.73876-2.4659 1.0597-3.5137 0.32094-1.0478 0.89078-2.9456 1.2663-4.2175s0.76124-2.4663 0.85713-2.6542c0.28126-0.55132 0.79497-1.0437 1.3476-1.2917 0.44536-0.19988 0.65019-0.2336 1.672-0.27527 2.4864-0.10141 3.4558 0.30275 4.0897 1.7052 0.12693 0.28081 0.97805 3.0475 1.8914 6.1482l1.6606 5.6376 0.08741 2.3634c0.13566 3.668-0.0056 4.5799-0.7899 5.0994-0.30528 0.20222-0.43696 0.23021-1.1962 0.25422-0.76727 0.0242-0.89158 7e-3 -1.2342-0.17592-0.80614-0.42926-1.0141-1.1747-1.0154-3.6399l-6.43e-4 -1.2488h-5.9972l-0.02882 1.8838c-0.02652 1.7336-0.04331 1.9108-0.21047 2.2225-0.38952 0.72623-0.87755 0.97455-1.9099 0.9718-0.49636-1e-3 -0.80118-0.0473-1.0434-0.15728zm8.5618-9.133c-0.02574-0.0815-0.52494-1.8811-1.1093-3.9992-0.58438-2.1181-1.0993-3.8878-1.1442-3.9328-0.05251-0.0525-0.11095-0.0525-0.16352 7e-5 -0.04499 0.045-0.56052 1.8147-1.1456 3.9328-0.5851 2.118-1.0843 3.9176-1.1092 3.9991-0.04252 0.13867 0.10714 0.14816 2.3367 0.14816 2.23 0 2.3791-9e-3 2.3353-0.14816zm88.841 9.1753c-0.71473-0.2554-1.3718-0.84587-1.6871-1.5161-0.26431-0.5618-4.3146-17.035-4.3124-17.539 3e-3 -0.7632 0.46764-1.4994 1.1558-1.8325 0.48757-0.23603 1.4584-0.25858 1.8742-0.0435 0.41077 0.21242 0.86382 0.70987 1.0835 1.1897 0.12252 0.26759 0.70398 2.7536 1.5167 6.4843 0.7249 3.3277 1.3386 6.1192 1.3639 6.2034 0.032 0.10684 0.11248 0.14522 0.26627 0.127 0.21605-0.0256 0.22835-0.0634 0.62747-1.9311 1.138-5.3254 2.2241-10.165 2.3682-10.553 0.20349-0.54827 0.72591-1.148 1.1998-1.3774 0.50151-0.24278 1.39-0.24299 1.891-8.4e-4 0.46459 0.22491 1.079 0.90673 1.2342 1.3697 0.0663 0.19764 0.70794 3.093 1.426 6.4341l1.3055 6.0747h0.23122c0.17029 8e-5 0.24288-0.0501 0.27544-0.1904 0.0243-0.10477 0.44589-2.0574 0.93683-4.3392 1.3539-6.2923 1.7303-7.9202 1.918-8.2941 0.27762-0.55322 0.55604-0.87365 0.96978-1.1161 0.32413-0.18995 0.48928-0.22766 0.99692-0.22766 0.51078 0 0.68061 0.0393 1.0582 0.24477 0.70549 0.38397 1.095 1.0198 1.103 1.8001 4e-3 0.38395-4.1372 17.032-4.3591 17.525-0.17524 0.38882-0.84805 1.0876-1.307 1.3574-0.35099 0.20635-0.47563 0.22822-1.4537 0.25512-0.92799 0.0255-1.1208 7e-3 -1.4542-0.14062-0.52768-0.23343-1.089-0.7728-1.3114-1.2601-0.10206-0.22367-0.62506-2.2545-1.1622-4.513-1.2564-5.2828-1.1036-4.7571-1.3739-4.7253-0.20999 0.0247-0.23592 0.0788-0.41848 0.873-1.1401 4.9601-1.9267 8.0896-2.1251 8.4547-0.25236 0.46449-0.72535 0.90344-1.2441 1.1545-0.29009 0.14044-0.51778 0.1691-1.3187 0.16603-0.56749-2e-3 -1.0949-0.049-1.2744-0.11318zm74.782-0.10518c-0.47289-0.23565-0.75345-0.58098-0.95459-1.1749-0.0936-0.27638-0.11468-1.9739-0.11468-9.2287 0-8.3064 0.01-8.9146 0.14983-9.2652 0.22213-0.55624 0.51672-0.896 0.9697-1.1184 0.38996-0.19144 0.49019-0.19965 2.7942-0.22898 3.6611-0.0466 5.0267 0.12175 6.4156 0.79104 1.2312 0.59327 2.2657 1.7434 2.6824 2.982 0.19207 0.57094 0.19332 0.60589 0.22049 6.1199 0.0183 3.7235-3e-3 5.7784-0.0664 6.2539-0.29149 2.2034-1.5327 3.8217-3.5591 4.6402-1.0193 0.41171-1.4144 0.4482-4.8699 0.44977l-3.2219 1e-3 -0.44565-0.22207zm6.3746-3.5927c0.63535-0.23771 1.1869-0.8476 1.3193-1.459 0.0668-0.3085 0.0875-1.97 0.0689-5.5213-0.026-4.9437-0.0315-5.0902-0.20355-5.4619-0.22564-0.48745-0.64889-0.91017-1.1346-1.1331-0.31832-0.14613-0.58998-0.1804-1.6308-0.20573l-1.2488-0.0304v13.986h1.1822c0.98559 0 1.2595-0.029 1.6474-0.17408zm-134.15-31.748c-10.483-0.567-20.57-4.6113-28.617-11.475-1.3607-1.1605-4.2733-4.0924-5.4199-5.4559-6.6138-7.8648-10.405-17.081-11.269-27.39-0.13691-1.6348-0.13691-5.8159 0-7.4507 0.74031-8.8395 3.608-16.816 8.6184-23.973 2.7381-3.9111 6.4783-7.7754 10.399-10.743 11.592-8.7763 26.653-11.794 40.894-8.195 17.79 4.4965 31.647 19.068 35.251 37.07 0.38354 1.9157 0.85907 5.5085 0.85907 6.4906 0 0.15094 1.0473 0.15573 34.043 0.15573h34.043l-0.0559-0.27516c-0.18209-0.89642-0.51169-2.3546-0.72612-3.2124-0.44845-1.794-0.29547-2.6599 0.63416-3.5895 0.70067-0.70068 1.2484-0.91099 2.2511-0.86439l0.71967 0.0335 8.3801 4.2715c9.1518 4.6648 8.9598 4.5522 9.4445 5.5415 0.17806 0.36342 0.20741 0.54316 0.20741 1.27 0 0.72685-0.0293 0.90658-0.20741 1.27-0.48349 0.98677-0.30795 0.88372-9.3187 5.4705-4.5386 2.3103-8.3814 4.2439-8.5397 4.2968-0.46707 0.1563-1.3824 0.11844-1.9101-0.079-0.58405-0.21852-1.2812-0.84289-1.6156-1.447-0.22789-0.41167-0.25026-0.52394-0.25041-1.2564 0-0.67426 0.0721-1.1124 0.44689-2.7093 0.24587-1.0478 0.46568-1.9908 0.48848-2.0956l0.0414-0.1906-68.114 0.0426-0.10265 1.1361c-0.51302 5.6769-2.1858 11.5-4.807 16.734-3.4652 6.9191-8.1847 12.562-14.386 17.201-8.9513 6.6959-20.062 10.031-31.38 9.4184z" fill="#72dba4"/>

//branch
//lettering
//not sure what this is
//not sure what this is
// not sure what this is
<path d="m46.972 242.29c-0.88478-0.18324-1.6412-0.6833-2.0274-1.3403l-0.23117-0.39324-0.05081-2.5823c-0.02795-1.4203-0.08987-2.6989-0.1376-2.8413-0.21763-0.6493-0.49456-0.98852-1.0393-1.273-0.23871-0.12468-0.5474-0.1613-1.5875-0.18829l-1.2912-0.0335v3.1725c0 3.3173-0.04218 3.8329-0.36523 4.4648-0.30087 0.58856-0.82005 0.86895-1.6932 0.91445-0.92261 0.0481-1.3392-0.0736-1.7877-0.52204-0.68074-0.68074-0.65292-0.22354-0.62414-10.255l0.02526-8.8053 0.23373-0.47594c0.28829-0.58705 0.69683-0.88754 1.3778-1.0134 0.33195-0.0614 1.509-0.0794 3.4672-0.0533 3.2299 0.0432 3.6053 0.0877 4.8818 0.57919 0.82324 0.31695 1.5899 0.80695 2.2154 1.4158 2.2925 2.2319 2.1293 6.4252-0.32259 8.2879-0.44696 0.33955-1.1824 0.7337-1.6929 0.90722-0.13726 0.0467-0.05081 0.11956 0.4616 0.3892 0.75632 0.39798 1.509 1.1156 1.8541 1.7676 0.46584 0.88017 0.53843 1.2625 0.58318 3.0721l0.04126 1.6684 0.29627 0.34612c0.77005 0.89963 0.42991 2.1019-0.73922 2.6129-0.45446 0.19863-1.3393 0.28439-1.8477 0.17908zm-3.0206-12.289c0.54498-0.28938 0.99992-0.76446 1.2427-1.2978 0.16084-0.35327 0.19306-0.57047 0.19468-1.3123 0.0024-1.0827-0.18695-1.5945-0.78427-2.1203-0.59596-0.52459-1.2016-0.67371-2.7364-0.67371h-1.2611v5.6866l1.4605-0.0289c1.3898-0.0275 1.481-0.0398 1.8838-0.25368zm-26.574 12.16c-2.1304-0.42335-3.6746-1.4989-4.4468-3.0973-0.64961-1.3446-0.64478-1.2897-0.64216-7.3123 0.0023-5.257 5e-3 -5.3437 0.19119-6.0064 0.32825-1.1686 0.7285-1.8643 1.5391-2.675 1.0801-1.0802 2.3557-1.6904 4.1671-1.9932 2.1789-0.36433 4.6256 0.17662 6.1684 1.3638 1.2416 0.95542 2.0554 2.5407 2.2903 4.4619 0.19452 1.5909-0.0051 2.2568-0.79935 2.6671-0.36862 0.1904-0.57168 0.23062-1.3184 0.26114-1 0.0409-1.6545-0.0704-2.1745-0.36975-0.55113-0.31725-0.64235-0.52702-0.71384-1.6416-0.03452-0.53821-0.10816-1.15-0.16364-1.3596-0.2717-1.0262-0.86485-1.5236-1.8952-1.589-0.81339-0.0517-1.2287 0.0738-1.6548 0.49984-0.61841 0.61841-0.61045 0.52939-0.58297 6.5188l0.02422 5.2806 0.19504 0.42333c0.39147 0.84969 0.86554 1.1676 1.7523 1.175 1.4802 0.0124 2.1781-0.8994 2.3248-3.0372 0.08944-1.3032 0.21991-1.4939 1.2179-1.7802 0.38111-0.10933 0.74081-0.13452 1.5663-0.10969 1.1912 0.0358 1.5689 0.16128 1.9889 0.66048 0.27791 0.33028 0.3468 0.70337 0.2754 1.4914-0.3003 3.3139-2.4536 5.5745-5.8816 6.1749-0.8727 0.15284-2.6412 0.14914-3.4278-7e-3zm43.318-0.16143c-0.5694-0.26509-0.90121-0.76247-1.0373-1.5548-0.06988-0.40701-0.0895-2.9716-0.07008-9.159l0.02698-8.5937 0.19664-0.43454c0.23125-0.51103 0.52147-0.81087 0.98869-1.0215 0.30499-0.13748 0.67914-0.15521 3.763-0.17832 4.5243-0.0339 5.4157 0.0665 6.0896 0.68596 0.53699 0.49366 0.69954 1.6976 0.32855 2.4333-0.22633 0.44884-0.80708 0.86935-1.396 1.0108-0.22661 0.0544-1.5063 0.11803-2.922 0.14522l-2.5188 0.0484v4.1121l1.8415 0.0289c1.7064 0.0268 1.8725 0.0431 2.2638 0.22296 0.8204 0.377 1.1403 0.88044 1.1403 1.7944 0 0.6715-0.20169 1.1597-0.60671 1.4687-0.56991 0.43468-0.90024 0.4978-2.8397 0.54256l-1.7992 0.0415v4.3674l2.6458 0.0324c2.487 0.0304 2.6741 0.0436 3.1167 0.21904 0.53092 0.21047 0.98034 0.60477 1.1503 1.0092 0.15474 0.36823 0.14531 1.3102-0.017 1.6988-0.26053 0.62369-0.79762 1.017-1.6295 1.1934-0.29526 0.0626-1.7861 0.0948-4.3603 0.0943l-3.9117-8.5e-4 -0.44364-0.20655zm20.142 0.0968c-0.46708-0.17571-0.83933-0.597-0.99223-1.123-0.11882-0.40873-0.1323-0.88092-0.09967-3.4926l0.03773-3.02 0.90505-2.9633c0.49778-1.6298 1.1533-3.8015 1.4567-4.826 1.2769-4.3111 1.3878-4.5708 2.1798-5.1 0.64806-0.43311 0.95004-0.48846 2.638-0.48355 1.3731 4e-3 1.5716 0.0232 2.0044 0.19418 0.84154 0.33238 1.3432 0.96718 1.7498 2.2144 0.0987 0.30269 0.8871 2.9506 1.752 5.8843l1.5726 5.334 0.0166 3.0057c0.01505 2.7252 0.0023 3.0428-0.13706 3.4039-0.30834 0.79906-0.96609 1.1301-2.1143 1.0642-0.55701-0.032-0.71396-0.0762-1.0114-0.28526-0.20908-0.14695-0.43988-0.41797-0.56834-0.6674-0.20978-0.40733-0.21714-0.47676-0.2445-2.3064l-0.0282-1.8864h-6.0819l-0.0017 1.4605c-0.0021 1.8144-0.08467 2.4246-0.39574 2.9254-0.34023 0.54773-0.73875 0.73184-1.6346 0.75517-0.4193 0.0109-0.83794-0.0257-1.003-0.0879zm8.4887-9.1384c-0.0336-0.10477-0.54432-1.9431-1.1349-4.0852-1.0168-3.6878-1.0842-3.8947-1.2675-3.8947-0.18264 0-0.24332 0.17979-1.0716 3.175-0.4829 1.7462-0.98936 3.5846-1.1254 4.0852l-0.24745 0.91016h4.908zm18.667 9.133c-0.71731-0.25634-1.0856-0.74039-1.259-1.6545-0.054-0.28452-0.0859-3.1687-0.0859-7.7518v-7.2988l-1.5121-0.0548c-1.8434-0.0668-2.4349-0.21352-2.9543-0.73298-0.42037-0.42037-0.56791-0.90452-0.50696-1.6637 0.0871-1.0852 0.79269-1.6598 2.2228-1.8102 0.4185-0.044 2.685-0.08 5.0366-0.08 2.3516 0 4.6181 0.036 5.0366 0.08 1.017 0.10695 1.5882 0.3918 1.9456 0.97014 0.23191 0.37526 0.25643 0.48191 0.25268 1.0994-0.01 1.6381-0.98597 2.1555-4.081 2.1633l-0.86784 2e-3 -3e-3 7.1332c-1e-3 3.9401-0.0382 7.4072-0.0821 7.7454-0.0438 0.33674-0.15463 0.75945-0.2464 0.93934-0.217 0.42536-0.68267 0.82931-1.0847 0.94096-0.4364 0.12118-1.4383 0.10622-1.8112-0.0271zm18.615 8.5e-4c-0.79447-0.29539-1.2614-0.9697-1.4147-2.043-0.11297-0.79113-0.11387-15.969-1e-3 -16.75 0.15567-1.0768 0.58985-1.7447 1.3462-2.0708 0.44383-0.19138 1.6351-0.1859 2.1424 0.01 0.52413 0.20224 1.0094 0.756 1.217 1.3886 0.1531 0.46661 0.16037 0.87662 0.16037 9.0401 0 7.8415-0.0121 8.59-0.14525 9.017-0.17688 0.56701-0.55702 1.0439-1.0271 1.2886-0.44763 0.23298-1.784 0.30299-2.278 0.11935zm18.723 3e-3c-0.66984-0.24717-1.333-0.81492-1.6358-1.4005-0.0722-0.13969-1.1283-4.0567-2.3467-8.7046-1.6398-6.2549-2.2173-8.5826-2.2226-8.9586-6e-3 -0.40878 0.0378-0.58475 0.22345-0.90099 0.55771-0.94996 1.9436-1.3403 2.9494-0.83066 0.338 0.17125 0.84751 0.70013 1.048 1.0879 0.24029 0.46469 1.2646 4.9894 2.4698 10.91l0.40071 1.9685h0.26656c0.25707 0 0.26991-0.0173 0.36123-0.48684 0.49119-2.5255 2.5838-11.941 2.7288-12.278 0.11217-0.26076 0.36407-0.6022 0.6294-0.85313 0.36113-0.34155 0.53102-0.43678 0.92506-0.51859 1.0257-0.21294 2.0975 0.27493 2.5426 1.1574 0.31419 0.62292 0.2884 0.7433-2.0639 9.635-0.5051 1.9092-1.2102 4.5931-1.5668 5.9641-0.35664 1.371-0.7243 2.6415-0.81701 2.8232-0.2341 0.45888-0.80178 1.0039-1.3021 1.2501-0.35747 0.1759-0.56193 0.2104-1.3525 0.22825-0.61604 0.0139-1.035-0.0172-1.2376-0.092zm18.34 0.0131c-0.45882-0.16387-0.81941-0.50518-1.0474-0.99138l-0.2226-0.47473v-8.9323c0-8.332 0.0101-8.9612 0.15006-9.3621 0.1601-0.45847 0.51145-0.84981 0.99294-1.106 0.27252-0.14498 0.57433-0.15977 3.7559-0.18402 1.9351-0.0148 3.8365 0.0114 4.3148 0.0593 1.0595 0.10614 1.6566 0.37729 2.0436 0.92793 0.24203 0.34438 0.25727 0.41283 0.25727 1.1558 0 0.74297-0.0152 0.81142-0.25727 1.1558-0.57887 0.82362-1.4113 0.99716-4.8016 1.001l-1.9262 2e-3v4.1344l1.8415 0.0298c1.7176 0.0278 1.8714 0.0432 2.2866 0.22952 0.83763 0.37584 1.1717 0.97584 1.1002 1.9758-0.0336 0.46992-0.0912 0.65811-0.28646 0.9359-0.4953 0.70473-1.2761 0.90563-3.5237 0.90664l-1.4182 8.5e-4v4.3881l2.6458 0.0324c2.4841 0.0304 2.6745 0.0437 3.115 0.21838 0.53135 0.2107 1.0279 0.6815 1.1707 1.1099 0.13665 0.41017 0.11851 1.2297-0.0354 1.5988-0.19164 0.45949-0.59983 0.83942-1.1343 1.0558-0.46294 0.18742-0.53256 0.19054-4.6187 0.20671-2.7766 0.011-4.2327-0.0136-4.4027-0.0743zm-117.22-30.957c-0.58033-0.19202-1.113-0.53995-1.3973-0.91267-0.42704-0.55989-0.46535-0.8167-0.46535-3.1198 0-2.8218-0.11735-3.412-0.79703-4.0088-0.41754-0.36661-0.76824-0.44009-2.1028-0.44063l-1.1642-4.8e-4v3.1046c0 1.822-0.03738 3.3192-0.09047 3.6241-0.1789 1.0273-0.70693 1.6025-1.6127 1.7566-1.2163 0.20701-2.1153-0.1549-2.5063-1.009-0.17463-0.38143-0.23287-0.67906-0.28551-1.4589-0.09191-1.3616-0.08873-14.891 0.0038-16.135 0.10275-1.3811 0.33642-1.8861 1.0491-2.2672 0.3422-0.18299 0.43595-0.18882 3.4242-0.21326 3.3903-0.0277 4.0064 0.0281 5.3261 0.48247 0.72986 0.2513 1.6889 0.80388 2.2867 1.3176 0.5145 0.44209 1.1578 1.4527 1.4125 2.219 0.72539 2.1826 0.23254 4.5361-1.2416 5.9287-0.49166 0.46451-1.0298 0.80322-1.7255 1.086l-0.46339 0.18833 0.66095 0.36275c1.1034 0.60557 1.8622 1.5511 2.2063 2.749 0.07712 0.26848 0.13862 1.0271 0.16814 2.074l0.04654 1.6507 0.29333 0.35797c0.35333 0.43119 0.45122 0.80896 0.35 1.3508-0.09611 0.51446-0.43596 0.93698-0.96992 1.2059-0.56196 0.28298-1.7188 0.33464-2.4056 0.10741zm-3.0504-12.003c1.3392-0.39769 2.0264-1.477 1.9292-3.0298-0.07065-1.1288-0.50436-1.8156-1.4189-2.2468-0.43568-0.20544-0.55973-0.2213-1.9262-0.24621l-1.4605-0.0266v5.6836h1.2123c0.85975 0 1.3437-0.039 1.664-0.13413zm26.63 12.038c-0.73113-0.23122-1.3225-0.66387-1.6689-1.221-0.18709-0.30087-0.19557-0.39885-0.2467-2.8516-0.05634-2.7023-0.10825-3.0722-0.51785-3.6905-0.11154-0.16836-0.38309-0.38598-0.65096-0.52169-0.43717-0.22147-0.51822-0.23283-1.6611-0.23283h-1.2015l-0.044 3.3232c-0.04708 3.5555-0.07865 3.8341-0.50629 4.4686-0.55871 0.82903-2.3905 1.0138-3.2257 0.32534-0.40155-0.33099-0.61889-0.76005-0.72912-1.4394-0.12392-0.76374-0.12065-16.804 0.0036-17.476 0.18177-0.9833 0.6626-1.5591 1.4475-1.7334 0.3188-0.0708 1.3747-0.0895 3.6248-0.064 2.9757 0.0336 3.2202 0.048 3.8947 0.22909 2.3664 0.6353 3.9157 1.9808 4.5394 3.942 0.28819 0.9063 0.36326 2.2935 0.16869 3.1174-0.17916 0.75864-0.61646 1.6858-1.0546 2.236-0.43199 0.54245-1.3956 1.2324-2.059 1.4743-0.27162 0.099-0.49369 0.20354-0.49349 0.23222 1.69e-4 0.0287 0.28427 0.1979 0.63126 0.37604 0.74901 0.38452 1.4942 1.1331 1.8442 1.8525 0.41029 0.84336 0.4875 1.3187 0.4875 3.0009v1.5434l0.335 0.38706c0.37523 0.43355 0.47459 0.78876 0.38596 1.3798-0.08283 0.55235-0.6536 1.1303-1.3078 1.3244-0.54143 0.16058-1.5167 0.16936-1.9955 0.018zm-2.7385-12.171c1.0241-0.48011 1.5221-1.3273 1.5354-2.6118 0.01306-1.2631-0.41159-2.0478-1.3603-2.5137-0.46506-0.22836-0.5437-0.23912-1.9452-0.26615l-1.4605-0.0282v5.7012l1.3758-0.0285c1.2801-0.0265 1.4092-0.0441 1.8547-0.25293zm20.053 12.128c-2.0748-0.45675-3.484-1.4694-4.2636-3.064-0.66057-1.3511-0.65899-1.3314-0.62733-7.8264 0.03054-6.2651 0.0028-5.9325 0.59257-7.1092 0.70877-1.4141 1.8757-2.3125 3.7582-2.8934 0.71841-0.22166 0.83274-0.23214 2.5722-0.23564 1.6518-3e-3 1.883 0.0143 2.4977 0.19068 2.1871 0.62755 3.4853 1.7815 4.1636 3.7011l0.23906 0.67652v5.9267c0 5.434-0.0126 5.9724-0.15159 6.477-0.55894 2.0293-1.9318 3.3526-4.1849 4.034-0.66679 0.20166-0.90517 0.22776-2.3099 0.2529-1.2923 0.0231-1.6923 0-2.286-0.13038zm2.7328-3.569c0.40376-0.11212 0.86353-0.5124 1.1033-0.96056 0.18457-0.34492 0.18563-0.37405 0.20908-5.7346 0.02305-5.2722 0.01979-5.398-0.15179-5.8566-0.48749-1.3029-2.1399-1.6798-3.1764-0.72436-0.64979 0.59895-0.63244 0.42284-0.63191 6.4171 0 3.543 0.03086 5.4072 0.09221 5.6282 0.11838 0.42636 0.70211 1.0401 1.135 1.1933 0.40616 0.14375 0.9831 0.159 1.4205 0.0375zm52.1 3.5963c-0.82815-0.18393-1.8362-0.5673-2.4129-0.91763-0.73121-0.44419-1.5993-1.4008-1.9797-2.1815-0.62676-1.2865-0.61344-1.1233-0.61344-7.5194 0-5.2643 0.0121-5.7584 0.1538-6.2653 0.44896-1.6064 1.4341-2.815 2.8519-3.499 1.4317-0.69064 1.8777-0.77728 3.9793-0.77304 1.7349 3e-3 1.8552 0.0144 2.5639 0.23324 1.8233 0.56297 3.0039 1.4704 3.6808 2.8291 0.65784 1.3205 0.65568 1.2958 0.65568 7.5173 0 6.144-2e-3 6.1629-0.59498 7.4013-0.74726 1.5593-2.0197 2.5568-3.9179 3.0716-0.87845 0.23823-3.4815 0.29978-4.3664 0.10325zm2.6139-3.6012c0.20948-0.058 0.48842-0.24351 0.73127-0.48636s0.42837-0.5218 0.48636-0.73128c0.0639-0.23094 0.0939-2.0239 0.0942-5.6364 8.4e-4 -5.9958 0.0181-5.818-0.6331-6.4182-0.21309-0.19642-0.52125-0.38003-0.73459-0.43769-0.46267-0.12503-1.1728-0.0558-1.5792 0.15404-0.38514 0.19884-0.82817 0.76237-0.94738 1.2051-0.0595 0.22112-0.0815 2.1217-0.0658 5.6903 0.0235 5.33 0.0246 5.3601 0.2091 5.705 0.22534 0.4211 0.7085 0.8603 1.0225 0.9295 0.12721 0.028 0.26939 0.0637 0.31595 0.0792 0.1901 0.0634 0.78316 0.0348 1.1007-0.0531zm20.711 3.6046c-2.1284-0.46175-3.5621-1.4467-4.3629-2.9973-0.68905-1.3341-0.66896-1.1282-0.70441-7.2219-0.0269-4.6247-0.0123-5.5074 0.10176-6.1686 0.40088-2.323 1.8735-3.8541 4.4057-4.5807 0.61462-0.17636 0.84587-0.19402 2.4977-0.19068 1.7394 3e-3 1.8538 0.014 2.5722 0.23564 2.1428 0.66118 3.3916 1.7946 4.0338 3.661 0.30355 0.88232 0.35293 2.0214 0.31721 7.318-0.0326 4.8398-0.0411 5.0636-0.21625 5.6969-0.63783 2.3072-2.2957 3.7633-4.8324 4.2442-0.88851 0.16844-3.0426 0.17037-3.8122 3e-3zm2.8324-3.7026c0.31743-0.16415 0.68815-0.53223 0.87011-0.86391 0.12579-0.22931 0.14274-0.81871 0.16387-5.6988 0.0167-3.859-4e-3 -5.5468-0.0724-5.7995-0.12566-0.46667-0.75928-1.1079-1.2211-1.2357-0.78551-0.21746-1.5322-0.0486-2.0428 0.46198-0.63225 0.63225-0.6242 0.54986-0.6242 6.386 0 5.8395-8e-3 5.7533 0.62667 6.3885 0.2108 0.21081 0.4996 0.40008 0.6929 0.45412 0.43369 0.12124 1.2888 0.072 1.607-0.0926zm-155.09 3.6149c-0.52266-0.16084-0.95862-0.66226-1.0895-1.2531-0.06532-0.29482-0.08545-1.3813-0.06292-3.3968l0.03313-2.9633 1.0838-3.556c0.59609-1.9558 1.3654-4.5184 1.7095-5.6947 0.67532-2.3082 0.94101-2.9376 1.4454-3.424 0.61895-0.59685 0.97541-0.6944 2.6672-0.72986 1.2113-0.0254 1.5875-5e-3 1.9786 0.10905 0.77928 0.22654 1.2449 0.57932 1.6239 1.2305 0.24115 0.41427 0.48669 1.1978 2.2286 7.112l1.5336 5.207 0.01486 3.0057 0.01486 3.0057-0.2242 0.4782c-0.17847 0.38067-0.30799 0.52745-0.635 0.71967-0.3695 0.21719-0.4874 0.24146-1.1728 0.24146s-0.8033-0.0243-1.1728-0.24146c-0.32701-0.19222-0.45653-0.339-0.635-0.71967-0.21758-0.46407-0.225-0.53261-0.25128-2.3197l-0.02709-1.8415h-6.0634l-0.04152 1.7992c-0.04616 2-0.11901 2.3479-0.59436 2.8383-0.47333 0.48835-1.4998 0.65921-2.3635 0.39342zm7.7871-11.444c-1.6807-6.092-1.5433-5.6515-1.7625-5.6515-0.18951 0-0.24518 0.16902-1.241 3.7677-0.57343 2.0722-1.0777 3.8915-1.1206 4.0428l-0.07804 0.27516h4.8737zm89.722 11.504c-0.73109-0.19365-1.579-0.85122-1.8965-1.4708-0.10244-0.19991-1.108-4.0869-2.2617-8.742-1.9094-7.7049-2.0749-8.4312-2.0485-8.9905 0.0242-0.51369 0.0685-0.66509 0.28396-0.97166 0.54068-0.7693 1.6079-1.1171 2.4459-0.79711 0.48391 0.18481 0.97652 0.66519 1.2268 1.1963 0.15323 0.32518 1.8345 7.7531 2.8496 12.59 0.0416 0.19799 0.0914 0.23283 0.33277 0.23283 0.29536 0 0.31857-0.0309 0.41399-0.55033 0.0821-0.44701 2-9.2665 2.2953-10.555 0.38615-1.6849 0.73208-2.3058 1.515-2.719 0.48253-0.25472 1.3942-0.25576 1.8745-2e-3 0.45989 0.24285 0.99657 0.84021 1.1687 1.3008 0.0773 0.20681 0.71322 3.043 1.4132 6.3027 0.69999 3.2597 1.293 5.9933 1.3177 6.0748 0.0308 0.1014 0.13167 0.14817 0.31957 0.14817h0.27457l0.61503-2.8575c1.3616-6.3261 2.0402-9.3241 2.2186-9.8007 0.24182-0.64634 0.83084-1.2401 1.3838-1.3949 0.91453-0.25606 1.8941 0.10649 2.3707 0.87742 0.50418 0.81548 0.56947 0.45808-1.8098 9.9068-1.171 4.6502-2.1999 8.5939-2.2866 8.7638-0.21272 0.41695-0.93602 1.0795-1.4252 1.3055-0.33789 0.1561-0.54932 0.18429-1.3731 0.18304-0.84834-1e-3 -1.0205-0.0263-1.3373-0.19416-0.51967-0.27538-0.99594-0.73196-1.1972-1.1478-0.1262-0.26069-2.2915-8.9991-2.2915-9.2477 0-0.019-0.13262-0.0346-0.29472-0.0346-0.2366 0-0.3031 0.0376-0.33723 0.1905-0.0234 0.10477-0.50221 2.1334-1.064 4.508-1.0762 4.5485-1.1478 4.767-1.7321 5.28-0.57205 0.50227-0.93402 0.62997-1.8636 0.65745-0.46566 0.0138-0.96096-5e-3 -1.1007-0.0423zm74.832-0.044c-0.54613-0.17572-0.84409-0.43591-1.103-0.96323l-0.23805-0.48479v-18.034l0.254-0.508c0.19915-0.3983 0.34401-0.56285 0.67084-0.762l0.41686-0.254 6.7016 6e-3 0.82328 0.22448c2.1741 0.59282 3.6524 1.9683 4.0842 3.8001 0.18157 0.77028 0.18987 11.594 0.01 12.437-0.38696 1.8095-1.4295 3.1913-2.9697 3.9362-1.3246 0.64057-1.4932 0.6635-5.08 0.69092-2.5101 0.0192-3.2948 0-3.5696-0.0887zm5.8336-3.5772c0.63951-0.17945 1.2586-0.71662 1.4764-1.281 0.14324-0.37122 0.15427-0.77204 0.15427-5.6068v-5.207l-0.2278-0.46567c-0.26754-0.54689-0.34967-0.65129-0.74917-0.95236-0.45434-0.3424-1.1498-0.48697-2.3428-0.48697h-1.0405v14.139h1.1163c0.77903 0 1.2665-0.0421 1.6134-0.13948zm-139.28-49.009c-0.63099-0.1773-0.92088-0.34408-1.4222-0.81824-0.2762-0.26121-0.52911-0.61039-0.68224-0.94192-0.21397-0.46322-0.24335-0.62392-0.24335-1.3312 0-1.1842 0.17842-1.5162 1.5697-2.9212 0.60353-0.60951 1.0973-1.1328 1.0973-1.163 0-0.0301-1.0763-0.0665-2.3918-0.0808l-2.3918-0.026-0.55033-0.262c-0.69943-0.33299-1.2253-0.8589-1.5583-1.5583-0.23289-0.48918-0.26196-0.63501-0.26158-1.3123 3.39e-4 -0.61411 0.03808-0.84416 0.19446-1.1853 0.44544-0.97188 1.0668-1.5476 1.9756-1.8304 0.47856-0.14894 0.86522-0.15922 5.9864-0.15922h5.4748l13.8-13.801-16.044-2e-3c-9.3186-9.9e-4 -16.27-0.0344-16.583-0.0797-1.0487-0.15161-1.981-0.82891-2.4476-1.7781-0.20648-0.42005-0.2305-0.56154-0.2305-1.3579 0-0.80366 0.02291-0.93565 0.23862-1.3749 0.44631-0.90889 1.3187-1.5654 2.3341-1.7566 0.25354-0.0477 1.7754-0.0859 3.4273-0.0859h2.9712l-4.7473-4.7625c-5.2357-5.2524-5.0728-5.0559-5.1722-6.2412-0.12284-1.4652 0.83365-2.8638 2.2378-3.2719 0.6909-0.20085 1.6239-0.13329 2.2665 0.16415 0.43168 0.19978 0.84813 0.57425 2.772 2.4925l2.264 2.2574 2.054-2.0372c2.4906-2.4702 2.5823-2.5288 3.959-2.5288 0.80803 0 0.93141 0.0217 1.3547 0.23831 0.61055 0.31245 1.1924 0.89094 1.4933 1.4848 0.22095 0.43599 0.24236 0.55677 0.24236 1.3672 0 1.3768-0.0585 1.4683-2.5296 3.9598l-2.038 2.0548 4.8205 4.8227h38.439l-5.0779-5.08h-5.1729c-5.7319 0-5.6199 0.01-6.4363-0.55264-0.48594-0.33469-0.96592-0.96823-1.1849-1.564-0.0839-0.22826-0.14254-0.65333-0.14626-1.0604-0.0054-0.58798 0.02855-0.75367 0.25223-1.2317 0.31013-0.66272 0.65806-1.0761 1.1968-1.4217 0.68524-0.43972 1.1877-0.51955 3.27-0.51955h1.8617l-1.7925-1.8049c-2.1722-2.1873-2.2629-2.3338-2.2629-3.6561 0-0.74203 0.02813-0.90668 0.2276-1.3323 0.29129-0.62153 0.90844-1.2375 1.5522-1.5492 0.44721-0.21654 0.59983-0.24544 1.3105-0.24812 0.71032-3e-3 0.86865 0.0258 1.3547 0.24407 0.52007 0.23353 1.0881 0.78405 10.331 10.012l9.7806 9.7647h36.728c34.939 0 36.726-7e-3 36.686-0.14816-0.0235-0.0815-0.12349-0.52917-0.22207-0.99484-0.0986-0.46567-0.33287-1.4933-0.52063-2.2835-0.27003-1.1366-0.33013-1.5269-0.28759-1.8674 0.21489-1.7199 1.9606-2.9683 3.5678-2.5514 0.30697 0.0796 3.2252 1.522 7.5692 3.7413 3.8883 1.9864 7.6018 3.8817 8.2522 4.2118 0.6504 0.33006 1.3389 0.7442 1.5299 0.92031 0.43717 0.40298 0.75483 0.98757 0.88587 1.6303 0.19197 0.94155-0.18005 2.034-0.91207 2.6784-0.24591 0.21645-3.0432 1.6905-8.4582 4.4572-4.45 2.2736-8.2674 4.2067-8.4831 4.2956-0.62712 0.25869-1.5316 0.2288-2.1942-0.0725-0.77738-0.3535-1.3971-1.0485-1.6358-1.8346-0.22563-0.74284-0.21044-0.88766 0.33462-3.19 0.23471-0.99141 0.45223-1.9725 0.48337-2.1802l0.0566-0.37759h-94.55l-6.9811 6.985-0.0455 12.192-0.2276 0.48563c-0.29129 0.62153-0.90844 1.2375-1.5522 1.5492-0.4472 0.21655-0.59983 0.24544-1.3105 0.24813-0.73026 3e-3 -0.85625-0.0216-1.3681-0.26406-0.70032-0.3318-1.2039-0.83819-1.5447-1.5532l-0.26225-0.55033-0.02635-2.8152c-0.01449-1.5483-0.05205-2.8152-0.08346-2.8152s-3.1247 3.0627-6.874 6.8059c-6.5485 6.538-6.8367 6.8132-7.3193 6.9896-0.66013 0.24138-1.4105 0.29192-1.9758 0.13308z" fill="#7a3908"/>
</g>
</svg>
